<mxfile host="app.diagrams.net" modified="2023-07-19T08:35:06.672Z" agent="Mozilla/5.0 (Windows NT 10.0; Win64; x64) AppleWebKit/537.36 (KHTML, like Gecko) Chrome/115.0.0.0 Safari/537.36" etag="uCwyI1BEytFIcwoC7HXk" version="21.6.2" type="device">
  <diagram name="Page-1" id="kFt4pX_IaDPTwfNXncNE">
    <mxGraphModel dx="1434" dy="693" grid="1" gridSize="10" guides="1" tooltips="1" connect="1" arrows="1" fold="1" page="1" pageScale="1" pageWidth="827" pageHeight="1169" math="0" shadow="0">
      <root>
        <mxCell id="0" />
        <mxCell id="1" parent="0" />
        <mxCell id="SYgVteukhmOVC_2Mw9XG-1" value="사용자" style="shape=umlActor;verticalLabelPosition=bottom;verticalAlign=top;html=1;outlineConnect=0;" vertex="1" parent="1">
          <mxGeometry x="150" y="80" width="30" height="60" as="geometry" />
        </mxCell>
        <mxCell id="SYgVteukhmOVC_2Mw9XG-2" value="비회원" style="shape=umlActor;verticalLabelPosition=bottom;verticalAlign=top;html=1;outlineConnect=0;" vertex="1" parent="1">
          <mxGeometry x="200" y="210" width="30" height="60" as="geometry" />
        </mxCell>
        <mxCell id="SYgVteukhmOVC_2Mw9XG-3" value="회원" style="shape=umlActor;verticalLabelPosition=bottom;verticalAlign=top;html=1;outlineConnect=0;" vertex="1" parent="1">
          <mxGeometry x="90" y="210" width="30" height="60" as="geometry" />
        </mxCell>
        <mxCell id="SYgVteukhmOVC_2Mw9XG-18" value="" style="endArrow=block;startArrow=none;endFill=0;startFill=0;endSize=8;html=1;verticalAlign=bottom;dashed=1;labelBackgroundColor=none;rounded=0;exitX=0.5;exitY=0;exitDx=0;exitDy=0;exitPerimeter=0;" edge="1" parent="1" source="SYgVteukhmOVC_2Mw9XG-3" target="SYgVteukhmOVC_2Mw9XG-1">
          <mxGeometry width="160" relative="1" as="geometry">
            <mxPoint x="320" y="80" as="sourcePoint" />
            <mxPoint x="170" y="200" as="targetPoint" />
          </mxGeometry>
        </mxCell>
        <mxCell id="SYgVteukhmOVC_2Mw9XG-19" value="" style="endArrow=block;startArrow=none;endFill=0;startFill=0;endSize=8;html=1;verticalAlign=bottom;dashed=1;labelBackgroundColor=none;rounded=0;exitX=0.5;exitY=0;exitDx=0;exitDy=0;exitPerimeter=0;entryX=1;entryY=1;entryDx=0;entryDy=0;entryPerimeter=0;" edge="1" parent="1" source="SYgVteukhmOVC_2Mw9XG-2" target="SYgVteukhmOVC_2Mw9XG-1">
          <mxGeometry width="160" relative="1" as="geometry">
            <mxPoint x="115" y="220" as="sourcePoint" />
            <mxPoint x="160" y="145" as="targetPoint" />
          </mxGeometry>
        </mxCell>
      </root>
    </mxGraphModel>
  </diagram>
</mxfile>
